# xmcd
#
# Track frame offsets: 
#        150
#        19174
#        39200
#        55576
#        70119
#        90496
#        112747
#        131920
#        151231
#        170441
#
# Disc length: 2547 seconds
#
# Revision: 0
# Processed by: cddbd v1.5.2PL0 Copyright (c) Steve Scherf et al.
# Submitted via: ExactAudioCopy v0.99pb4
#
DISCID=7009f10a
DTITLE=The Dukes Of Despair - Wood, Wire And Skin
DYEAR=2010
DGENRE=Rock
TTITLE0=Where I Call Home
TTITLE1=I'm Getting Over You
TTITLE2=I Don't Know About That
TTITLE3=Girl, It's a Mystery
TTITLE4=Bob Dylan's America
TTITLE5=Murder Ballad
TTITLE6=Something Good
TTITLE7=Looking OVer My Shoulder
TTITLE8=One More For The Brave
TTITLE9=Desert Song
EXTD=
EXTT0=
EXTT1=
EXTT2=
EXTT3=
EXTT4=
EXTT5=
EXTT6=
EXTT7=
EXTT8=
EXTT9=
PLAYORDER=
